<?xml version="1.0" encoding="UTF-8"?>
<svg id="Layer_1" data-name="Layer 1" xmlns="http://www.w3.org/2000/svg" viewBox="0 0 48.4 40.93">
  <defs>
    <style>
      .cls-1 {
        fill: #f26a22;
      }

      .cls-2 {
        fill: #f26739;
      }
    </style>
  </defs>
  <path class="cls-2" d="m44.6,23.43l-1.2-5c.3-.1.6-.4.6-.7v-.8c0-1.7-1.4-3.2-3.2-3.2h-5.7v-1.7c0-.9-.7-1.6-1.6-1.6h-10.4l6.4-2.6c.4-.2.6-.6.4-1s-.6-.6-1-.4l-5.2,2.1c1.6-1,3.2-2.2,3.8-2.9,1.2-1.5.9-3.7-.7-4.9-1.5-1.2-3.7-.9-4.9.7h0c-.9,1.1-2,4.3-2.7,6.5-.7-2.2-1.9-5.4-2.7-6.5h0c-1.2-1.5-3.4-1.8-4.9-.7-1.6,1.3-1.9,3.5-.7,5,.6.8,2.2,1.9,3.8,2.9l-5.2-2.1c-.4-.2-.8,0-1,.4s0,.8.4,1l6.4,2.6H4.8c-.9,0-1.6.7-1.6,1.6v13.6c0,.4.3.8.8.8.4,0,.8-.3.8-.8v-13.6h28.9v13.6c0,.4.3.8.8.8.4,0,.8-.3.8-.8v-.9h8.7c1.1,0,2,.7,2.3,1.7h-2.3c-.4,0-.8.3-.8.8v1.6c0,1.3,1.1,2.4,2.4,2.4h.9v3.3h-2c-.6-1.9-2.4-3.2-4.5-3.2s-3.9,1.3-4.5,3.2h-.4v-5.7c0-.4-.3-.8-.8-.8-.4,0-.8.3-.8.8v5.7h-15.4c-.6-1.9-2.4-3.2-4.5-3.2s-3.9,1.3-4.5,3.2h-4.3v-1.7h3.2c.4,0,.8-.3.8-.8s-.4-.7-.8-.7H.8c-.4,0-.8.3-.8.8s.3.8.8.8h2.5v1.5c0,.9.7,1.6,1.6,1.6h4.1c0,2.6,2.1,4.8,4.8,4.8s4.8-2.1,4.8-4.8h16.9c0,2.6,2.1,4.8,4.8,4.8s4.8-2.1,4.8-4.8h2.5c.4,0,.8-.3.8-.8v-8c-.4-2-1.9-3.6-3.8-3.9ZM23.1,2.43h0c.7-.9,1.9-1,2.8-.4s1,1.9.4,2.8c-.3.3-1.1,1.2-4.1,3-.6.4-1.2.7-1.7,1,.7-2.2,1.9-5.4,2.6-6.4Zm-11,2.4c-.7-.9-.5-2.1.4-2.8.4-.3.8-.4,1.2-.4.6,0,1.2.3,1.6.8h0c.7,1,1.9,4.2,2.6,6.5-.5-.3-1.1-.6-1.7-1-3-1.9-3.8-2.7-4.1-3.1Zm23.1,13.6h6.7l1.2,4.9h-7.9v-4.9Zm5.6-3.2c.9,0,1.7.7,1.7,1.7h-7.3v-1.7h5.6Zm-27.2,24.2c-1.8,0-3.3-1.5-3.3-3.3s1.5-3.3,3.3-3.3,3.3,1.5,3.3,3.3-1.5,3.3-3.3,3.3Zm26.4,0c-1.8,0-3.3-1.5-3.3-3.3s1.5-3.3,3.3-3.3,3.3,1.5,3.3,3.3-1.5,3.3-3.3,3.3Zm5.6-9.6c-.5,0-.9-.4-.9-.9v-.9h1.7v1.7l-.8.1h0Z"/>
  <path class="cls-1" d="m13.6,34.57c-.9,0-1.6.7-1.6,1.6s.7,1.6,1.6,1.6,1.6-.7,1.6-1.6-.8-1.6-1.6-1.6Z"/>
  <path class="cls-1" d="m40,34.57c-.9,0-1.6.7-1.6,1.6s.7,1.6,1.6,1.6,1.6-.7,1.6-1.6-.7-1.6-1.6-1.6Z"/>
  <path class="cls-1" d="m19.2,32.07c0,.4.3.8.8.8h11.2c.4,0,.8-.3.8-.8s-.3-.8-.8-.8h-11.2c-.4.1-.8.4-.8.8Z"/>
  <path class="cls-1" d="m2.4,29.67h9.6c.4,0,.8-.3.8-.8s-.3-.8-.8-.8H2.4c-.4,0-.8.3-.8.8s.3.8.8.8Z"/>
</svg>