<?xml version="1.0" encoding="UTF-8"?>
<!DOCTYPE svg PUBLIC "-//W3C//DTD SVG 1.1//EN" "http://www.w3.org/Graphics/SVG/1.1/DTD/svg11.dtd">
<svg xmlns="http://www.w3.org/2000/svg" version="1.1" width="512px" height="512px" style="shape-rendering:geometricPrecision; text-rendering:geometricPrecision; image-rendering:optimizeQuality; fill-rule:evenodd; clip-rule:evenodd" xmlns:xlink="http://www.w3.org/1999/xlink">
<g><path style="opacity:0.934" fill="#000000" d="M 511.5,190.5 C 511.5,204.167 511.5,217.833 511.5,231.5C 505.935,279.461 486.268,320.628 452.5,355C 457.67,354.568 462.836,353.735 468,352.5C 476.871,355.471 478.705,360.804 473.5,368.5C 457.189,372.863 440.689,376.53 424,379.5C 418.399,379.065 415.232,376.065 414.5,370.5C 417.685,354.075 421.185,337.742 425,321.5C 430,316.167 435,316.167 440,321.5C 440.601,323.137 441.101,324.803 441.5,326.5C 439.943,332.107 439.11,337.774 439,343.5C 488.75,291.173 504.75,229.839 487,159.5C 464.443,91.6095 418.61,48.4429 349.5,30C 277.964,16.8462 217.464,36.6796 168,89.5C 163.833,95 159.667,100.5 155.5,106C 147.705,110.127 142.705,107.961 140.5,99.5C 140.763,96.9722 141.596,94.6389 143,92.5C 190.254,31.1356 252.754,3.30226 330.5,9C 408.044,19.832 463.21,60.6654 496,131.5C 503.772,150.623 508.939,170.29 511.5,190.5 Z"/></g>
<g><path style="opacity:0.898" fill="#000000" d="M 304.5,43.5 C 310.489,42.0652 314.655,44.0652 317,49.5C 317.667,57.1667 317.667,64.8333 317,72.5C 313.96,78.3682 309.46,79.8682 303.5,77C 301.513,75.6811 300.346,73.8477 300,71.5C 299.333,64.1667 299.333,56.8333 300,49.5C 300.979,47.0324 302.479,45.0324 304.5,43.5 Z"/></g>
<g><path style="opacity:0.899" fill="#000000" d="M 225.5,64.5 C 231.957,63.9749 236.457,66.6416 239,72.5C 241.333,76.8333 243.667,81.1667 246,85.5C 246.736,95.56 242.236,99.06 232.5,96C 228.271,90.0987 224.437,83.9321 221,77.5C 219.379,71.9227 220.879,67.5894 225.5,64.5 Z"/></g>
<g><path style="opacity:0.904" fill="#000000" d="M 385.5,64.5 C 394.649,64.1562 398.149,68.4896 396,77.5C 393,82.8333 390,88.1667 387,93.5C 380.863,99.255 375.53,98.5883 371,91.5C 370.333,89.5 370.333,87.5 371,85.5C 374.592,77.448 379.425,70.448 385.5,64.5 Z"/></g>
<g><path style="opacity:0.93" fill="#000000" d="M -0.5,175.5 C -0.5,165.833 -0.5,156.167 -0.5,146.5C 1.43358,135.88 5.26691,125.88 11,116.5C 24.4707,102.029 38.304,87.8621 52.5,74C 71.2722,61.4932 88.4389,63.3265 104,79.5C 120.667,108.833 137.333,138.167 154,167.5C 162.661,181.871 162.661,196.204 154,210.5C 142,222.5 130,234.5 118,246.5C 114.734,251.738 113.734,257.405 115,263.5C 148.085,310.585 187.918,351.085 234.5,385C 241.167,389.667 247.833,389.667 254.5,385C 267.196,371.97 280.196,359.304 293.5,347C 304.049,341.071 315.049,340.071 326.5,344C 358.5,362 390.5,380 422.5,398C 438.517,412.993 440.684,429.827 429,448.5C 415.5,462 402,475.5 388.5,489C 374.465,498.928 358.798,503.762 341.5,503.5C 313.815,501.829 287.482,494.996 262.5,483C 219.675,462.148 180.675,435.814 145.5,404C 106.358,368.769 72.5246,329.269 44,285.5C 27.8468,260.191 15.1802,233.191 6,204.5C 3.32406,194.81 1.15739,185.143 -0.5,175.5 Z M 71.5,83.5 C 79.022,82.3943 85.1887,84.7277 90,90.5C 107.587,121.338 124.92,152.338 142,183.5C 142.81,188.257 142.476,192.924 141,197.5C 135.699,203.802 130.032,209.802 124,215.5C 110.159,191.822 96.8261,167.822 84,143.5C 74.052,138.366 69.052,141.366 69,152.5C 82.7062,178.08 96.5396,203.58 110.5,229C 97.3824,240.636 93.5491,254.802 99,271.5C 103.506,279.18 108.506,286.513 114,293.5C 145.611,332.779 181.445,367.613 221.5,398C 235.972,407.61 250.638,407.943 265.5,399C 268,396.5 270.5,394 273,391.5C 279.261,395.382 285.761,398.882 292.5,402C 303.053,403.074 306.553,398.574 303,388.5C 297.585,384.875 292.085,381.375 286.5,378C 291.865,372.301 297.531,366.967 303.5,362C 311.506,358.273 319.172,358.94 326.5,364C 354.671,380.253 383.005,396.253 411.5,412C 421.697,424.054 420.363,434.888 407.5,444.5C 381.19,430.096 354.69,416.096 328,402.5C 321.327,403.848 318.661,407.848 320,414.5C 320.774,416.939 322.274,418.773 324.5,420C 347.833,432.667 371.167,445.333 394.5,458C 389.167,463.333 383.833,468.667 378.5,474C 367.369,482.078 354.869,485.911 341,485.5C 322.513,484.736 304.68,480.903 287.5,474C 259.683,463.096 233.683,449.096 209.5,432C 148.755,388.257 97.9222,335.09 57,272.5C 42.7084,249.581 31.3751,225.248 23,199.5C 17.9156,183.328 16.0822,166.828 17.5,150C 18.5082,141.488 21.3415,133.655 26,126.5C 32.3655,120.469 38.3655,114.136 44,107.5C 47.0403,113.082 50.207,118.582 53.5,124C 63.3677,128.462 68.201,125.295 68,114.5C 64.8815,107.761 61.3815,101.261 57.5,95C 61.5067,90.1406 66.1734,86.3073 71.5,83.5 Z"/></g>
<g><path style="opacity:0.898" fill="#000000" d="M 169.5,122.5 C 177.909,125.288 185.742,129.288 193,134.5C 196.899,144.232 193.732,149.065 183.5,149C 176.25,145.461 169.417,141.294 163,136.5C 160.607,129.623 162.773,124.957 169.5,122.5 Z"/></g>
<g><path style="opacity:0.9" fill="#000000" d="M 444.5,122.5 C 453.862,123.022 457.029,127.688 454,136.5C 448.423,140.706 442.59,144.54 436.5,148C 426.532,150.703 422.032,146.87 423,136.5C 429.823,131.152 436.99,126.486 444.5,122.5 Z"/></g>
<g><path style="opacity:0.925" fill="#000000" d="M 249.5,140.5 C 273.019,138.993 289.186,148.993 298,170.5C 302.274,190.012 296.774,206.179 281.5,219C 269.662,227.089 257.329,234.422 244.5,241C 239.167,245 234.5,249.667 230.5,255C 251.5,255.333 272.5,255.667 293.5,256C 296.232,256.398 298.065,257.898 299,260.5C 300.443,265.212 299.277,269.045 295.5,272C 269.896,273.639 244.229,273.972 218.5,273C 215.804,272.31 213.637,270.81 212,268.5C 210.544,256.868 213.544,246.535 221,237.5C 225.877,232.954 231.044,228.787 236.5,225C 248.664,218.755 260.331,211.755 271.5,204C 285.591,190.169 285.591,176.502 271.5,163C 253.555,153.873 239.721,158.039 230,175.5C 229.226,179.147 228.559,182.814 228,186.5C 223.284,191.395 218.284,191.728 213,187.5C 210.311,170.039 216.478,156.539 231.5,147C 237.301,143.903 243.301,141.736 249.5,140.5 Z"/></g>
<g><path style="opacity:0.937" fill="#000000" d="M 332.5,140.5 C 339.759,139.596 343.426,142.763 343.5,150C 338.818,173.576 333.818,197.076 328.5,220.5C 342.5,220.5 356.5,220.5 370.5,220.5C 370.333,195.831 370.5,171.164 371,146.5C 374.04,140.632 378.54,139.132 384.5,142C 386.487,143.319 387.654,145.152 388,147.5C 388.5,171.831 388.667,196.164 388.5,220.5C 392.846,220.334 397.179,220.501 401.5,221C 406.453,225.643 406.787,230.643 402.5,236C 397.964,237.379 393.297,237.879 388.5,237.5C 388.666,247.172 388.5,256.839 388,266.5C 385.183,272.439 380.683,274.273 374.5,272C 372.951,270.786 371.785,269.286 371,267.5C 370.5,257.506 370.334,247.506 370.5,237.5C 351.497,237.667 332.497,237.5 313.5,237C 311.185,235.891 309.685,234.057 309,231.5C 314.22,202.739 320.22,174.072 327,145.5C 328.352,143.251 330.185,141.584 332.5,140.5 Z"/></g>
<g><path style="opacity:0.895" fill="#000000" d="M 446.5,202.5 C 454.84,202.334 463.173,202.5 471.5,203C 476.069,205.541 477.569,209.375 476,214.5C 474.62,217.883 472.12,219.716 468.5,220C 460.768,220.856 453.102,220.523 445.5,219C 439.953,213.032 440.287,207.532 446.5,202.5 Z"/></g>
<g><path style="opacity:0.906" fill="#000000" d="M 182.5,273.5 C 193.039,272.915 196.539,277.581 193,287.5C 187.099,291.729 180.932,295.563 174.5,299C 163.212,299.719 159.712,294.886 164,284.5C 170.313,280.933 176.479,277.266 182.5,273.5 Z"/></g>
<g><path style="opacity:0.906" fill="#000000" d="M 427.5,273.5 C 429.857,273.337 432.19,273.503 434.5,274C 440.5,277.333 446.5,280.667 452.5,284C 457.7,293.935 454.7,298.935 443.5,299C 437.52,295.7 431.52,292.366 425.5,289C 421.083,283.087 421.75,277.921 427.5,273.5 Z"/></g>
<g><path style="opacity:0.907" fill="#000000" d="M 233.5,325.5 C 243.105,323.939 247.271,327.939 246,337.5C 242.228,344.268 238.061,350.768 233.5,357C 223.836,359.001 219.67,355.167 221,345.5C 224.427,338.301 228.593,331.634 233.5,325.5 Z"/></g>
<g><path style="opacity:0.911" fill="#000000" d="M 375.5,325.5 C 378.978,325.184 382.312,325.684 385.5,327C 388.874,332.916 392.374,338.75 396,344.5C 397.598,355.571 393.098,359.405 382.5,356C 377.404,349.074 373.404,341.574 370.5,333.5C 370.672,329.807 372.339,327.141 375.5,325.5 Z"/></g>
</svg>
