<?xml version="1.0" encoding="UTF-8"?><svg id="Layer_1" xmlns="http://www.w3.org/2000/svg" viewBox="0 0 512.5 495.74"><defs><style>.cls-1{fill:#e84d0f;}</style></defs><path class="cls-1" d="m512.25,182.48v41c-5.57,47.96-25.23,89.13-59,123.5,5.17-.43,10.34-1.27,15.5-2.5,8.87,2.97,10.7,8.3,5.5,16-16.31,4.36-32.81,8.03-49.5,11-5.6-.43-8.77-3.43-9.5-9,3.18-16.42,6.68-32.76,10.5-49,5-5.33,10-5.33,15,0,.6,1.64,1.1,3.3,1.5,5-1.56,5.61-2.39,11.27-2.5,17,49.75-52.33,65.75-113.66,48-184-22.56-67.89-68.39-111.06-137.5-129.5-71.54-13.15-132.04,6.68-181.5,59.5-4.17,5.5-8.33,11-12.5,16.5-7.79,4.13-12.79,1.96-15-6.5.26-2.53,1.1-4.86,2.5-7C191,23.12,253.5-4.72,331.25.98c77.54,10.83,132.71,51.67,165.5,122.5,7.77,19.12,12.94,38.79,15.5,59Z"/><path class="cls-1" d="m472.25,194.98c4.57,2.54,6.07,6.38,4.5,11.5-1.38,3.38-3.88,5.22-7.5,5.5-7.73.86-15.4.52-23-1-5.55-5.97-5.21-11.47,1-16.5,8.34-.17,16.67,0,25,.5Z"/><path class="cls-1" d="m445.25,114.48c9.36.52,12.53,5.19,9.5,14-5.58,4.21-11.41,8.04-17.5,11.5-9.97,2.7-14.47-1.13-13.5-11.5,6.82-5.35,13.99-10.01,21.5-14Z"/><path class="cls-1" d="m453.25,275.98c5.2,9.93,2.2,14.93-9,15-5.98-3.3-11.98-6.63-18-10-4.42-5.91-3.75-11.08,2-15.5,2.36-.16,4.69,0,7,.5,6,3.33,12,6.67,18,10Z"/><path class="cls-1" d="m423.25,389.98c16.02,14.99,18.18,31.83,6.5,50.5l-40.5,40.5c-14.04,9.93-29.7,14.76-47,14.5-27.68-1.67-54.02-8.5-79-20.5-42.82-20.85-81.82-47.19-117-79-39.14-35.23-72.98-74.73-101.5-118.5-16.15-25.31-28.82-52.31-38-81-2.68-9.69-4.84-19.36-6.5-29v-29c1.93-10.62,5.77-20.62,11.5-30,13.47-14.47,27.3-28.64,41.5-42.5,18.77-12.51,35.94-10.67,51.5,5.5,16.67,29.33,33.33,58.67,50,88,8.66,14.37,8.66,28.7,0,43l-36,36c-3.27,5.24-4.27,10.9-3,17,33.09,47.08,72.92,87.58,119.5,121.5,6.67,4.67,13.33,4.67,20,0,12.7-13.03,25.7-25.7,39-38,10.55-5.93,21.55-6.93,33-3l96,54Zm-15,46.5c12.86-9.61,14.2-20.45,4-32.5-28.49-15.75-56.83-31.75-85-48-7.33-5.06-14.99-5.73-23-2-5.97,4.97-11.64,10.3-17,16,5.58,3.38,11.08,6.88,16.5,10.5,3.55,10.07.05,14.57-10.5,13.5-6.74-3.12-13.24-6.62-19.5-10.5l-7.5,7.5c-14.86,8.94-29.53,8.61-44-1-40.05-30.39-75.89-65.22-107.5-104.5-5.49-6.99-10.49-14.32-15-22-5.45-16.7-1.62-30.86,11.5-42.5-13.96-25.42-27.79-50.92-41.5-76.5.05-11.13,5.05-14.13,15-9,12.83,24.32,26.16,48.32,40,72,6.03-5.7,11.7-11.7,17-18,1.48-4.58,1.81-9.24,1-14-17.08-31.16-34.41-62.16-52-93-4.81-5.77-10.98-8.11-18.5-7-5.33,2.81-9.99,6.64-14,11.5,3.88,6.26,7.38,12.76,10.5,19.5.2,10.79-4.63,13.96-14.5,9.5-3.29-5.42-6.46-10.92-9.5-16.5-5.63,6.64-11.63,12.97-18,19-4.66,7.15-7.49,14.99-8.5,23.5-1.42,16.83.42,33.33,5.5,49.5,8.38,25.75,19.71,50.08,34,73,40.92,62.59,91.76,115.76,152.5,159.5,24.18,17.1,50.18,31.1,78,42,17.18,6.9,35.01,10.74,53.5,11.5,13.87.41,26.37-3.42,37.5-11.5l16-16c-23.33-12.67-46.67-25.33-70-38-2.23-1.23-3.73-3.06-4.5-5.5-1.34-6.65,1.33-10.65,8-12,26.69,13.6,53.19,27.6,79.5,42Z"/><path class="cls-1" d="m402.25,212.98c4.95,4.64,5.29,9.64,1,15-4.54,1.38-9.2,1.88-14,1.5.17,9.67,0,19.34-.5,29-2.82,5.94-7.32,7.77-13.5,5.5-1.55-1.21-2.71-2.71-3.5-4.5-.5-9.99-.67-19.99-.5-30-19,.17-38,0-57-.5-2.32-1.11-3.82-2.94-4.5-5.5,5.22-28.76,11.22-57.43,18-86,1.35-2.25,3.18-3.92,5.5-5,7.26-.9,10.93,2.26,11,9.5-4.68,23.58-9.68,47.08-15,70.5h42c-.17-24.67,0-49.34.5-74,3.04-5.87,7.54-7.37,13.5-4.5,1.99,1.32,3.15,3.15,3.5,5.5.5,24.33.67,48.66.5,73,4.35-.17,8.68,0,13,.5Z"/><path class="cls-1" d="m386.25,56.48c9.15-.34,12.65,3.99,10.5,13-3,5.33-6,10.67-9,16-6.14,5.75-11.47,5.09-16-2-.67-2-.67-4,0-6,3.59-8.05,8.42-15.05,14.5-21Z"/><path class="cls-1" d="m396.75,336.48c1.6,11.07-2.9,14.9-13.5,11.5-5.1-6.93-9.1-14.43-12-22.5.17-3.69,1.84-6.36,5-8,3.48-.32,6.81.18,10,1.5,3.37,5.92,6.87,11.75,10.5,17.5Z"/><path class="cls-1" d="m317.75,41.48c.67,7.67.67,15.33,0,23-3.04,5.87-7.54,7.37-13.5,4.5-1.99-1.32-3.15-3.15-3.5-5.5-.67-7.33-.67-14.67,0-22,.98-2.47,2.48-4.47,4.5-6,5.99-1.43,10.15.57,12.5,6Z"/><path class="cls-1" d="m299.75,252.48c1.44,4.71.28,8.55-3.5,11.5-25.6,1.64-51.27,1.97-77,1-2.7-.69-4.86-2.19-6.5-4.5-1.46-11.63,1.54-21.96,9-31,4.88-4.55,10.04-8.71,15.5-12.5,12.16-6.24,23.83-13.24,35-21,14.09-13.83,14.09-27.5,0-41-17.95-9.13-31.78-4.96-41.5,12.5-.77,3.65-1.44,7.31-2,11-4.72,4.9-9.72,5.23-15,1-2.69-17.46,3.48-30.96,18.5-40.5,5.8-3.1,11.8-5.26,18-6.5,23.52-1.51,39.69,8.49,48.5,30,4.27,19.51-1.23,35.68-16.5,48.5-11.84,8.09-24.17,15.42-37,22-5.33,4-10,8.67-14,14,21,.33,42,.67,63,1,2.73.4,4.57,1.9,5.5,4.5Z"/><path class="cls-1" d="m234.25,317.48c9.6-1.56,13.77,2.44,12.5,12-3.77,6.77-7.94,13.27-12.5,19.5-9.66,2-13.83-1.83-12.5-11.5,3.43-7.2,7.59-13.87,12.5-20Z"/><path class="cls-1" d="m246.75,77.48c.74,10.06-3.76,13.56-13.5,10.5-4.23-5.9-8.06-12.07-11.5-18.5-1.62-5.58-.12-9.91,4.5-13,6.46-.53,10.96,2.14,13.5,8,2.33,4.33,4.67,8.67,7,13Z"/><path class="cls-1" d="m193.75,126.48c3.9,9.73.73,14.57-9.5,14.5-7.25-3.54-14.08-7.71-20.5-12.5-2.39-6.88-.23-11.54,6.5-14,8.41,2.79,16.24,6.79,23.5,12Z"/><path class="cls-1" d="m183.25,265.48c10.54-.58,14.04,4.08,10.5,14-5.9,4.23-12.07,8.06-18.5,11.5-11.29.72-14.79-4.11-10.5-14.5,6.31-3.57,12.48-7.23,18.5-11Z"/></svg>