<?xml version="1.0" encoding="UTF-8"?>
<!DOCTYPE svg PUBLIC "-//W3C//DTD SVG 1.1//EN" "http://www.w3.org/Graphics/SVG/1.1/DTD/svg11.dtd">
<svg xmlns="http://www.w3.org/2000/svg" version="1.1" width="512px" height="512px" style="shape-rendering:geometricPrecision; text-rendering:geometricPrecision; image-rendering:optimizeQuality; fill-rule:evenodd; clip-rule:evenodd" xmlns:xlink="http://www.w3.org/1999/xlink">
<g><path style="opacity:0.958" fill="#000000" d="M 511.5,111.5 C 511.5,207.5 511.5,303.5 511.5,399.5C 506.293,416.196 494.96,426.03 477.5,429C 329.5,429.667 181.5,429.667 33.5,429C 16.0404,426.03 4.70706,416.196 -0.5,399.5C -0.5,303.5 -0.5,207.5 -0.5,111.5C 4.70706,94.8037 16.0404,84.9703 33.5,82C 181.5,81.3333 329.5,81.3333 477.5,82C 494.96,84.9703 506.293,94.8037 511.5,111.5 Z M 35.5,104.5 C 182.167,104.333 328.834,104.5 475.5,105C 481.493,106.326 485.66,109.826 488,115.5C 488.993,209.89 488.659,304.223 487,398.5C 484.197,402.646 480.364,405.146 475.5,406C 328.833,406.667 182.167,406.667 35.5,406C 29.9173,404.757 25.7506,401.59 23,396.5C 22.3333,302.5 22.3333,208.5 23,114.5C 25.918,109.396 30.0846,106.063 35.5,104.5 Z M 69.5,208.5 C 83.8333,208.5 98.1667,208.5 112.5,208.5C 112.5,216.833 112.5,225.167 112.5,233.5C 98.1667,233.5 83.8333,233.5 69.5,233.5C 69.5,225.167 69.5,216.833 69.5,208.5 Z"/></g>
<g><path style="opacity:0.95" fill="#000000" d="M 328.5,146.5 C 371.168,146.333 413.835,146.5 456.5,147C 464.911,151.274 466.578,157.44 461.5,165.5C 459.869,167.297 457.869,168.464 455.5,169C 413.833,169.667 372.167,169.667 330.5,169C 321.445,165.37 319.278,159.204 324,150.5C 325.397,148.93 326.897,147.596 328.5,146.5 Z"/></g>
<g><path style="opacity:0.957" fill="#000000" d="M 55.5,185.5 C 79.5023,185.333 103.502,185.5 127.5,186C 130.937,187.105 133.437,189.272 135,192.5C 135.975,212.256 135.642,231.923 134,251.5C 132.363,253.81 130.196,255.31 127.5,256C 103.167,256.667 78.8333,256.667 54.5,256C 50.2297,254.73 47.7297,251.896 47,247.5C 46.3333,229.833 46.3333,212.167 47,194.5C 48.3513,189.985 51.1846,186.985 55.5,185.5 Z M 69.5,208.5 C 69.5,216.833 69.5,225.167 69.5,233.5C 83.8333,233.5 98.1667,233.5 112.5,233.5C 112.5,225.167 112.5,216.833 112.5,208.5C 98.1667,208.5 83.8333,208.5 69.5,208.5 Z"/></g>
<g><path style="opacity:0.942" fill="#000000" d="M 54.5,307.5 C 73.8362,307.333 93.1695,307.5 112.5,308C 120.723,312.15 122.556,318.316 118,326.5C 116.421,328.041 114.587,329.208 112.5,330C 93.5,330.667 74.5,330.667 55.5,330C 46.8057,326.255 44.639,320.088 49,311.5C 50.8121,310.023 52.6455,308.69 54.5,307.5 Z"/></g>
<g><path style="opacity:0.942" fill="#000000" d="M 152.5,307.5 C 172.169,307.333 191.836,307.5 211.5,308C 219.583,312.418 221.25,318.584 216.5,326.5C 214.869,328.297 212.869,329.464 210.5,330C 191.5,330.667 172.5,330.667 153.5,330C 145.895,326.275 143.728,320.442 147,312.5C 148.73,310.598 150.563,308.931 152.5,307.5 Z"/></g>
<g><path style="opacity:0.944" fill="#000000" d="M 251.5,307.5 C 271.169,307.333 290.836,307.5 310.5,308C 317.968,312.033 319.801,317.867 316,325.5C 314.363,327.81 312.196,329.31 309.5,330C 290.5,330.667 271.5,330.667 252.5,330C 244.567,326.412 242.4,320.578 246,312.5C 247.73,310.598 249.563,308.931 251.5,307.5 Z"/></g>
<g><path style="opacity:0.946" fill="#000000" d="M 350.5,307.5 C 370.169,307.333 389.836,307.5 409.5,308C 415.908,311.323 418.075,316.489 416,323.5C 414.437,326.728 411.937,328.895 408.5,330C 389.5,330.667 370.5,330.667 351.5,330C 343.312,326.024 341.312,319.858 345.5,311.5C 347.21,310.113 348.877,308.779 350.5,307.5 Z"/></g>
<g><path style="opacity:0.951" fill="#000000" d="M 54.5,356.5 C 117.501,356.333 180.501,356.5 243.5,357C 250.489,361.128 252.322,366.961 249,374.5C 247.363,376.81 245.196,378.31 242.5,379C 179.833,379.667 117.167,379.667 54.5,379C 46.6234,374.699 44.7901,368.533 49,360.5C 50.8121,359.023 52.6455,357.69 54.5,356.5 Z"/></g>
</svg>
