<?xml version="1.0" encoding="utf-8"?>
<!-- Generator: Adobe Illustrator 27.7.0, SVG Export Plug-In . SVG Version: 6.00 Build 0)  -->
<svg version="1.1" id="Layer_1" xmlns="http://www.w3.org/2000/svg" xmlns:xlink="http://www.w3.org/1999/xlink" x="0px" y="0px"
	 viewBox="0 0 512 512" style="enable-background:new 0 0 512 512;" xml:space="preserve">
<style type="text/css">
	.st0{fill:#E84D0F;}
</style>
<g>
	<g id="XMLID_00000052101496862242665300000009760820484879811982_">
		<g>
			<path class="st0" d="M511,111.5c0,96,0,192,0,288c-5.2,16.7-16.5,26.5-34,29.5c-148,0.7-296,0.7-444,0c-17.5-3-28.8-12.8-34-29.5
				c0-96,0-192,0-288C4.2,94.8,15.5,85,33,82c148-0.7,296-0.7,444,0C494.5,85,505.8,94.8,511,111.5z M486.5,398.5
				c1.7-94.3,2-188.6,1-283c-2.3-5.7-6.5-9.2-12.5-10.5c-146.7-0.5-293.3-0.7-440-0.5c-5.4,1.6-9.6,4.9-12.5,10
				c-0.7,94-0.7,188,0,282c2.8,5.1,6.9,8.3,12.5,9.5c146.7,0.7,293.3,0.7,440,0C479.9,405.1,483.7,402.6,486.5,398.5z"/>
			<path class="st0" d="M456,147c8.4,4.3,10.1,10.4,5,18.5c-1.6,1.8-3.6,3-6,3.5c-41.7,0.7-83.3,0.7-125,0c-9-3.6-11.2-9.8-6.5-18.5
				c1.4-1.6,2.9-2.9,4.5-4C370.7,146.3,413.3,146.5,456,147z"/>
			<path class="st0" d="M409,308c6.4,3.3,8.6,8.5,6.5,15.5c-1.6,3.2-4.1,5.4-7.5,6.5c-19,0.7-38,0.7-57,0c-8.2-4-10.2-10.1-6-18.5
				c1.7-1.4,3.4-2.7,5-4C369.7,307.3,389.3,307.5,409,308z"/>
			<path class="st0" d="M310,308c7.5,4,9.3,9.9,5.5,17.5c-1.6,2.3-3.8,3.8-6.5,4.5c-19,0.7-38,0.7-57,0c-7.9-3.6-10.1-9.4-6.5-17.5
				c1.7-1.9,3.6-3.6,5.5-5C270.7,307.3,290.3,307.5,310,308z"/>
			<path class="st0" d="M243,357c7,4.1,8.8,10,5.5,17.5c-1.6,2.3-3.8,3.8-6.5,4.5c-62.7,0.7-125.3,0.7-188,0
				c-7.9-4.3-9.7-10.5-5.5-18.5c1.8-1.5,3.7-2.8,5.5-4C117,356.3,180,356.5,243,357z"/>
			<path class="st0" d="M211,308c8.1,4.4,9.8,10.6,5,18.5c-1.6,1.8-3.6,3-6,3.5c-19,0.7-38,0.7-57,0c-7.6-3.7-9.8-9.6-6.5-17.5
				c1.7-1.9,3.6-3.6,5.5-5C171.7,307.3,191.3,307.5,211,308z"/>
			<path class="st0" d="M134.5,192.5c1,19.8,0.6,39.4-1,59c-1.6,2.3-3.8,3.8-6.5,4.5c-24.3,0.7-48.7,0.7-73,0
				c-4.3-1.3-6.8-4.1-7.5-8.5c-0.7-17.7-0.7-35.3,0-53c1.3-4.5,4.2-7.5,8.5-9c24-0.2,48,0,72,0.5
				C130.4,187.1,132.9,189.3,134.5,192.5z M112,233.5c0-8.3,0-16.7,0-25c-14.3,0-28.7,0-43,0c0,8.3,0,16.7,0,25
				C83.3,233.5,97.7,233.5,112,233.5z"/>
			<path class="st0" d="M112,308c8.2,4.1,10.1,10.3,5.5,18.5c-1.6,1.5-3.4,2.7-5.5,3.5c-19,0.7-38,0.7-57,0
				c-8.7-3.7-10.9-9.9-6.5-18.5c1.8-1.5,3.7-2.8,5.5-4C73.3,307.3,92.7,307.5,112,308z"/>
			<path class="st0" d="M112,208.5c0,8.3,0,16.7,0,25c-14.3,0-28.7,0-43,0c0-8.3,0-16.7,0-25C83.3,208.5,97.7,208.5,112,208.5z"/>
		</g>
		<g>
		</g>
	</g>
</g>
</svg>
