<?xml version="1.0" encoding="UTF-8"?>
<!DOCTYPE svg PUBLIC "-//W3C//DTD SVG 1.1//EN" "http://www.w3.org/Graphics/SVG/1.1/DTD/svg11.dtd">
<svg xmlns="http://www.w3.org/2000/svg" version="1.1" width="512px" height="512px" style="shape-rendering:geometricPrecision; text-rendering:geometricPrecision; image-rendering:optimizeQuality; fill-rule:evenodd; clip-rule:evenodd" xmlns:xlink="http://www.w3.org/1999/xlink">
<g><path style="opacity:0.962" fill="#000000" d="M 117.5,15.5 C 130.885,14.2765 141.718,18.9432 150,29.5C 173.032,60.8769 193.032,94.2102 210,129.5C 212.928,136.213 214.762,143.213 215.5,150.5C 215.253,155.075 214.086,159.408 212,163.5C 208.246,169.258 203.746,174.425 198.5,179C 190.167,186 181.833,193 173.5,200C 198,267.167 243.833,313 311,337.5C 321.452,324.048 332.952,311.548 345.5,300C 353.055,295.42 361.055,294.42 369.5,297C 391.918,305.542 413.251,316.209 433.5,329C 449.5,339.667 465.5,350.333 481.5,361C 495.652,372.431 498.819,386.265 491,402.5C 476.908,421.26 460.742,438.093 442.5,453C 423.474,469.348 402.808,483.348 380.5,495C 363.793,495.527 347.46,493.194 331.5,488C 292.095,475.297 255.429,457.297 221.5,434C 141.637,378.811 80.4706,307.644 38,220.5C 27.6406,197.088 20.3073,172.754 16,147.5C 15.3333,141.833 15.3333,136.167 16,130.5C 38.1356,89.6839 66.9689,54.1839 102.5,24C 107.27,20.619 112.27,17.7857 117.5,15.5 Z M 122.5,49.5 C 145.795,79.8839 165.462,112.717 181.5,148C 168.43,159.396 155.597,171.229 143,183.5C 137.856,190.721 137.189,198.388 141,206.5C 165.91,280.745 214.41,333.245 286.5,364C 295.966,367.544 305.632,370.378 315.5,372.5C 319.983,372.215 323.983,370.715 327.5,368C 338.078,357.427 347.911,346.26 357,334.5C 358.719,332.443 360.719,330.776 363,329.5C 398.047,345.594 430.88,365.094 461.5,388C 435.782,416.733 406.782,441.4 374.5,462C 363.975,461.789 353.642,460.123 343.5,457C 302.109,443.973 264.109,424.639 229.5,399C 168.621,354.466 119.454,299.632 82,234.5C 68.1265,209.545 57.7932,183.211 51,155.5C 49.3446,149.244 48.678,142.911 49,136.5C 69.6381,104.352 94.1381,75.3517 122.5,49.5 Z"/></g>
<g><path style="opacity:0.963" fill="#000000" d="M 265.5,31.5 C 347.892,31.5988 410.392,66.5988 453,136.5C 472.208,170.333 480.875,206.667 479,245.5C 474.527,254.482 467.36,257.649 457.5,255C 450.649,252.138 447.149,246.971 447,239.5C 443.499,165.378 408.666,111.878 342.5,79C 317.889,68.6776 292.222,63.3443 265.5,63C 256.518,58.5269 253.351,51.3603 256,41.5C 258.022,36.98 261.189,33.6467 265.5,31.5 Z"/></g>
<g><path style="opacity:0.961" fill="#000000" d="M 265.5,111.5 C 320.378,110.847 360.878,134.513 387,182.5C 396.781,202.403 400.781,223.403 399,245.5C 394.527,254.482 387.36,257.649 377.5,255C 373,253.167 369.833,250 368,245.5C 367.078,201.451 346.912,169.951 307.5,151C 293.948,146.023 279.948,143.356 265.5,143C 256.518,138.527 253.351,131.36 256,121.5C 258.022,116.98 261.189,113.647 265.5,111.5 Z"/></g>
</svg>
