<?xml version="1.0" encoding="UTF-8"?>
<!DOCTYPE svg PUBLIC "-//W3C//DTD SVG 1.1//EN" "http://www.w3.org/Graphics/SVG/1.1/DTD/svg11.dtd">
<svg xmlns="http://www.w3.org/2000/svg" version="1.1" width="512px" height="512px" style="shape-rendering:geometricPrecision; text-rendering:geometricPrecision; image-rendering:optimizeQuality; fill-rule:evenodd; clip-rule:evenodd" xmlns:xlink="http://www.w3.org/1999/xlink">
<g><path style="opacity:0.929" fill="#000000" d="M 436.5,-0.5 C 444.167,-0.5 451.833,-0.5 459.5,-0.5C 487.167,6.5 504.5,23.8333 511.5,51.5C 511.5,59.8333 511.5,68.1667 511.5,76.5C 505.746,104.769 489.913,125.436 464,138.5C 463.667,184.833 463.333,231.167 463,277.5C 461.551,282.399 459.551,287.065 457,291.5C 385.833,364 314,435.833 241.5,507C 238.107,508.62 234.774,510.12 231.5,511.5C 226.167,511.5 220.833,511.5 215.5,511.5C 211.434,509.631 207.434,507.464 203.5,505C 137.667,439.167 71.8333,373.333 6,307.5C 3.53607,303.566 1.36941,299.566 -0.5,295.5C -0.5,290.167 -0.5,284.833 -0.5,279.5C 1.26512,273.978 4.09846,268.978 8,264.5C 78.194,193.972 148.694,123.806 219.5,54C 223.935,51.4491 228.601,49.4491 233.5,48C 284.167,47.6667 334.833,47.3333 385.5,47C 393.732,21.5968 410.732,5.76351 436.5,-0.5 Z M 439.5,15.5 C 468.222,13.4082 486.722,26.0748 495,53.5C 498.571,81.9935 488.404,103.994 464.5,119.5C 463.667,103.51 463.167,87.5104 463,71.5C 459.833,59 452,51.1667 439.5,48C 427.167,47.6667 414.833,47.3333 402.5,47C 409.524,30.134 421.858,19.634 439.5,15.5 Z M 236.5,63.5 C 303.167,63.3333 369.834,63.5 436.5,64C 441.667,65.8333 445.167,69.3333 447,74.5C 447.833,92.5093 447.666,110.509 446.5,128.5C 433.918,133.749 420.918,136.416 407.5,136.5C 400.85,112.037 384.85,101.203 359.5,104C 339.478,109.527 328.812,122.694 327.5,143.5C 329.902,168.068 343.402,181.402 368,183.5C 387.157,182.177 399.991,172.51 406.5,154.5C 420.355,152.943 433.855,149.943 447,145.5C 447.667,188.5 447.667,231.5 447,274.5C 445.777,278.615 443.777,282.282 441,285.5C 372.167,354.333 303.333,423.167 234.5,492C 228.04,496.179 221.373,496.512 214.5,493C 149,427.5 83.5,362 18,296.5C 14.488,289.627 14.8213,282.96 19,276.5C 87.8333,207.667 156.667,138.833 225.5,70C 228.933,67.2894 232.6,65.1227 236.5,63.5 Z M 390.5,137.5 C 383.098,137.605 375.765,136.939 368.5,135.5C 361.848,135.649 359.015,138.982 360,145.5C 360.785,147.286 361.951,148.786 363.5,150C 371.657,152.36 379.99,153.86 388.5,154.5C 378.349,168.953 366.016,171.12 351.5,161C 339.895,146.345 341.562,133.345 356.5,122C 367.598,117.338 377.431,119.171 386,127.5C 388.324,130.48 389.824,133.813 390.5,137.5 Z"/></g>
</svg>
