<?xml version="1.0" encoding="utf-8"?>
<!-- Generator: Adobe Illustrator 27.7.0, SVG Export Plug-In . SVG Version: 6.00 Build 0)  -->
<svg version="1.1" id="Layer_1" xmlns="http://www.w3.org/2000/svg" xmlns:xlink="http://www.w3.org/1999/xlink" x="0px" y="0px"
	 viewBox="0 0 512 512" style="enable-background:new 0 0 512 512;" xml:space="preserve">
<style type="text/css">
	.st0{fill:#E84D0F;}
</style>
<g>
	<g id="XMLID_00000110450019229396500170000017291257765816792245_">
		<g>
			<path class="st0" d="M511.5,51.5c0,8.3,0,16.7,0,25c-5.8,28.3-21.6,48.9-47.5,62c-0.3,46.3-0.7,92.7-1,139c-1.5,4.9-3.5,9.6-6,14
				C385.8,364,314,435.8,241.5,507c-3.4,1.6-6.7,3.1-10,4.5c-5.3,0-10.7,0-16,0c-4.1-1.9-8.1-4-12-6.5
				C137.7,439.2,71.8,373.3,6,307.5c-2.5-3.9-4.6-7.9-6.5-12c0-5.3,0-10.7,0-16c1.8-5.5,4.6-10.5,8.5-15
				C78.2,194,148.7,123.8,219.5,54c4.4-2.5,9.1-4.5,14-6c50.7-0.3,101.3-0.7,152-1c8.2-25.4,25.2-41.2,51-47.5c7.7,0,15.3,0,23,0
				C487.2,6.5,504.5,23.8,511.5,51.5z M464.5,119.5c23.9-15.5,34.1-37.5,30.5-66c-8.3-27.4-26.8-40.1-55.5-38
				c-17.6,4.1-30,14.6-37,31.5c12.3,0.3,24.7,0.7,37,1c12.5,3.2,20.3,11,23.5,23.5C463.2,87.5,463.7,103.5,464.5,119.5z
				 M446.5,128.5c1.2-18,1.3-36,0.5-54c-1.8-5.2-5.3-8.7-10.5-10.5c-66.7-0.5-133.3-0.7-200-0.5c-3.9,1.6-7.6,3.8-11,6.5
				C156.7,138.8,87.8,207.7,19,276.5c-4.2,6.5-4.5,13.1-1,20C83.5,362,149,427.5,214.5,493c6.9,3.5,13.5,3.2,20-1
				c68.8-68.8,137.7-137.7,206.5-206.5c2.8-3.2,4.8-6.9,6-11c0.7-43,0.7-86,0-129c-13.1,4.4-26.6,7.4-40.5,9
				c-6.5,18-19.3,27.7-38.5,29c-24.6-2.1-38.1-15.4-40.5-40c1.3-20.8,12-34,32-39.5c25.4-2.8,41.4,8,48,32.5
				C420.9,136.4,433.9,133.8,446.5,128.5z M368.5,135.5c7.3,1.4,14.6,2.1,22,2c-0.7-3.7-2.2-7-4.5-10c-8.6-8.3-18.4-10.2-29.5-5.5
				c-14.9,11.4-16.6,24.4-5,39c14.5,10.1,26.9,7.9,37-6.5c-8.5-0.6-16.8-2.1-25-4.5c-1.5-1.2-2.7-2.7-3.5-4.5
				C359,139,361.9,135.6,368.5,135.5z"/>
		</g>
		<g>
		</g>
	</g>
</g>
</svg>
