<?xml version="1.0" encoding="UTF-8"?>
<!DOCTYPE svg PUBLIC "-//W3C//DTD SVG 1.1//EN" "http://www.w3.org/Graphics/SVG/1.1/DTD/svg11.dtd">
<svg xmlns="http://www.w3.org/2000/svg" version="1.1" width="512px" height="512px" style="shape-rendering:geometricPrecision; text-rendering:geometricPrecision; image-rendering:optimizeQuality; fill-rule:evenodd; clip-rule:evenodd" xmlns:xlink="http://www.w3.org/1999/xlink">
<g><path style="opacity:0.976" fill="#000000" d="M 511.5,291.5 C 511.5,315.5 511.5,339.5 511.5,363.5C 508.343,373.494 501.843,380.494 492,384.5C 492.116,399.823 487.282,413.323 477.5,425C 487.167,425.333 496.833,425.667 506.5,426C 508.362,427.366 510.028,428.866 511.5,430.5C 511.5,433.833 511.5,437.167 511.5,440.5C 510.028,442.134 508.362,443.634 506.5,445C 339.167,445.667 171.833,445.667 4.5,445C 2.63834,443.634 0.971672,442.134 -0.5,440.5C -0.5,437.167 -0.5,433.833 -0.5,430.5C 0.971672,428.866 2.63834,427.366 4.5,426C 27.5,425.667 50.5,425.333 73.5,425C 63.7715,413.649 59.1049,400.482 59.5,385.5C 45.76,385.946 32.0934,385.446 18.5,384C 8.82173,380.159 2.4884,373.326 -0.5,363.5C -0.5,271.5 -0.5,179.5 -0.5,87.5C 2.98437,76.5167 10.3177,69.3501 21.5,66C 122.167,65.3333 222.833,65.3333 323.5,66C 334.667,69.1667 341.833,76.3333 345,87.5C 345.5,113.498 345.667,139.498 345.5,165.5C 376.168,165.333 406.835,165.5 437.5,166C 445.413,168.577 451.58,173.411 456,180.5C 474.019,217.871 492.519,254.871 511.5,291.5 Z M 29.5,85.5 C 124.834,85.3333 220.167,85.5 315.5,86C 319.115,86.6135 321.949,88.4469 324,91.5C 324.5,182.833 324.667,274.166 324.5,365.5C 275.162,365.833 225.829,365.5 176.5,364.5C 163.199,335.345 140.533,322.511 108.5,326C 86.3207,330.681 70.9874,343.515 62.5,364.5C 50.123,365.918 37.7897,365.751 25.5,364C 23.3333,363.167 21.8333,361.667 21,359.5C 19.7748,354.915 19.2748,350.248 19.5,345.5C 31.1714,345.667 42.8381,345.5 54.5,345C 56.3333,343.833 57.8333,342.333 59,340.5C 59.6667,323.833 59.6667,307.167 59,290.5C 57.8333,288.667 56.3333,287.167 54.5,286C 42.8381,285.5 31.1714,285.333 19.5,285.5C 19.3333,222.166 19.5,158.832 20,95.5C 20.679,89.6569 23.8457,86.3236 29.5,85.5 Z M 345.5,185.5 C 373.502,185.333 401.502,185.5 429.5,186C 432.738,186.232 435.238,187.732 437,190.5C 439.372,195.412 441.872,200.245 444.5,205C 419.833,205.333 395.167,205.667 370.5,206C 366.982,208.186 365.148,211.353 365,215.5C 364.333,242.167 364.333,268.833 365,295.5C 365.148,299.647 366.982,302.814 370.5,305C 410.499,305.5 450.499,305.667 490.5,305.5C 490.667,323.503 490.5,341.503 490,359.5C 489.085,360.328 488.419,361.328 488,362.5C 472.694,332.931 448.527,321.098 415.5,327C 395.923,333.078 382.257,345.578 374.5,364.5C 364.856,365.498 355.19,365.832 345.5,365.5C 345.5,305.5 345.5,245.5 345.5,185.5 Z M 385.5,225.5 C 408.502,225.333 431.502,225.5 454.5,226C 464.5,245.667 474.5,265.333 484.5,285C 451.502,285.5 418.502,285.667 385.5,285.5C 385.5,265.5 385.5,245.5 385.5,225.5 Z M 19.5,305.5 C 25.8333,305.5 32.1667,305.5 38.5,305.5C 38.5,312.167 38.5,318.833 38.5,325.5C 32.1667,325.5 25.8333,325.5 19.5,325.5C 19.5,318.833 19.5,312.167 19.5,305.5 Z M 111.5,346.5 C 135.48,344.339 150.98,354.673 158,377.5C 160.648,401.501 150.482,417.001 127.5,424C 103.499,426.648 87.9988,416.482 81,393.5C 78.5588,369.474 88.7255,353.807 111.5,346.5 Z M 423.5,346.5 C 447.48,344.339 462.98,354.673 470,377.5C 472.648,401.501 462.482,417.001 439.5,424C 415.499,426.648 399.999,416.482 393,393.5C 390.559,369.474 400.726,353.807 423.5,346.5 Z M 179.5,385.5 C 243.168,385.333 306.834,385.5 370.5,386C 371.167,400.668 376.167,413.668 385.5,425C 312.167,425.667 238.833,425.667 165.5,425C 175.227,413.654 179.894,400.487 179.5,385.5 Z"/></g>
<g><path style="opacity:0.908" fill="#000000" d="M 104.5,125.5 C 116.324,123.824 121.158,128.824 119,140.5C 115.345,145.275 110.512,146.775 104.5,145C 99.7255,141.345 98.2255,136.512 100,130.5C 101.366,128.638 102.866,126.972 104.5,125.5 Z"/></g>
<g><path style="opacity:0.989" fill="#000000" d="M 144.5,125.5 C 189.835,125.333 235.168,125.5 280.5,126C 285.275,129.655 286.775,134.488 285,140.5C 283.833,142.333 282.333,143.833 280.5,145C 235.167,145.667 189.833,145.667 144.5,145C 139.725,141.345 138.225,136.512 140,130.5C 141.366,128.638 142.866,126.972 144.5,125.5 Z"/></g>
<g><path style="opacity:0.985" fill="#000000" d="M 184.5,165.5 C 216.502,165.333 248.502,165.5 280.5,166C 285.275,169.655 286.775,174.488 285,180.5C 283.833,182.333 282.333,183.833 280.5,185C 248.5,185.667 216.5,185.667 184.5,185C 179.725,181.345 178.225,176.512 180,170.5C 181.366,168.638 182.866,166.972 184.5,165.5 Z"/></g>
<g><path style="opacity:0.947" fill="#000000" d="M 112.5,365.5 C 132.65,363.483 141.483,372.483 139,392.5C 133.657,403.752 124.824,407.919 112.5,405C 101.248,399.657 97.0811,390.824 100,378.5C 102.353,372.315 106.52,367.982 112.5,365.5 Z"/></g>
<g><path style="opacity:0.946" fill="#000000" d="M 424.5,365.5 C 444.65,363.483 453.483,372.483 451,392.5C 445.657,403.752 436.824,407.919 424.5,405C 413.184,399.534 409.017,390.701 412,378.5C 414.353,372.315 418.52,367.982 424.5,365.5 Z"/></g>
</svg>
