<?xml version="1.0" encoding="UTF-8"?><svg id="Layer_1" xmlns="http://www.w3.org/2000/svg" viewBox="0 0 512.5 380.5"><defs><style>.cls-1{fill:#e84d0f;}</style></defs><path class="cls-1" d="m512.25,365.25v10c-1.47,1.63-3.14,3.13-5,4.5-167.33.67-334.67.67-502,0-1.86-1.37-3.53-2.87-5-4.5v-10c1.47-1.63,3.14-3.13,5-4.5,23-.33,46-.67,69-1-9.73-11.35-14.4-24.52-14-39.5-13.74.45-27.41-.05-41-1.5-9.68-3.84-16.01-10.67-19-20.5V22.25C3.73,11.27,11.07,4.1,22.25.75,122.92.08,223.58.08,324.25.75c11.17,3.17,18.33,10.33,21.5,21.5.5,26,.67,52,.5,78,30.67-.17,61.33,0,92,.5,7.91,2.58,14.08,7.41,18.5,14.5,18.02,37.37,36.52,74.37,55.5,111v72c-3.16,9.99-9.66,16.99-19.5,21,.12,15.32-4.72,28.82-14.5,40.5,9.67.33,19.33.67,29,1,1.86,1.37,3.53,2.87,5,4.5Zm-21.5-71c.5-18,.67-36,.5-54-40,.17-80,0-120-.5-3.52-2.19-5.35-5.35-5.5-9.5-.67-26.67-.67-53.33,0-80,.15-4.15,1.98-7.31,5.5-9.5,24.67-.33,49.33-.67,74-1-2.63-4.76-5.13-9.59-7.5-14.5-1.76-2.77-4.26-4.27-7.5-4.5-28-.5-56-.67-84-.5v180c9.69.33,19.36,0,29-1,7.76-18.92,21.42-31.42,41-37.5,33.03-5.9,57.19,5.93,72.5,35.5.42-1.17,1.08-2.17,2-3Zm-5.5-74.5c-10-19.67-20-39.33-30-59-23-.5-46-.67-69-.5v60c33,.17,66,0,99-.5Zm-45,139c22.98-7,33.15-22.5,30.5-46.5-7.02-22.83-22.52-33.16-46.5-31-22.77,7.31-32.94,22.97-30.5,47,7,22.98,22.5,33.15,46.5,30.5Zm-54,1c-9.33-11.33-14.33-24.33-15-39-63.67-.5-127.33-.67-191-.5.39,14.99-4.27,28.15-14,39.5,73.33.67,146.67.67,220,0Zm-61-59.5c.17-91.33,0-182.67-.5-274-2.05-3.05-4.89-4.89-8.5-5.5-95.33-.5-190.67-.67-286-.5-5.65.82-8.82,4.16-9.5,10-.5,63.33-.67,126.67-.5,190,11.67-.17,23.34,0,35,.5,1.83,1.17,3.33,2.67,4.5,4.5.67,16.67.67,33.33,0,50-1.17,1.83-2.67,3.33-4.5,4.5-11.66.5-23.33.67-35,.5-.23,4.75.27,9.42,1.5,14,.83,2.17,2.33,3.67,4.5,4.5,12.29,1.75,24.62,1.92,37,.5,8.49-20.98,23.82-33.82,46-38.5,32.03-3.49,54.7,9.35,68,38.5,49.33,1,98.66,1.33,148,1Zm-197,58.5c22.98-7,33.15-22.5,30.5-46.5-7.02-22.83-22.52-33.16-46.5-31-22.77,7.31-32.94,22.97-30.5,47,7,22.98,22.5,33.15,46.5,30.5Zm-89-98.5v-20h-19v20h19Z"/><path class="cls-1" d="m425.25,300.25c20.15-2.02,28.98,6.98,26.5,27-5.34,11.25-14.18,15.42-26.5,12.5-11.32-5.47-15.48-14.3-12.5-26.5,2.35-6.18,6.52-10.52,12.5-13Z"/><path class="cls-1" d="m281.25,60.75c4.77,3.65,6.27,8.49,4.5,14.5-1.17,1.83-2.67,3.33-4.5,4.5-45.33.67-90.67.67-136,0-4.77-3.65-6.27-8.49-4.5-14.5,1.37-1.86,2.87-3.53,4.5-5,45.34-.17,90.67,0,136,.5Z"/><path class="cls-1" d="m281.25,100.75c4.77,3.65,6.27,8.49,4.5,14.5-1.17,1.83-2.67,3.33-4.5,4.5-32,.67-64,.67-96,0-4.77-3.65-6.27-8.49-4.5-14.5,1.37-1.86,2.87-3.53,4.5-5,32-.17,64,0,96,.5Z"/><path class="cls-1" d="m113.25,300.25c20.15-2.02,28.98,6.98,26.5,27-5.34,11.25-14.18,15.42-26.5,12.5-11.25-5.34-15.42-14.18-12.5-26.5,2.35-6.18,6.52-10.52,12.5-13Z"/><path class="cls-1" d="m105.25,60.25c11.82-1.68,16.66,3.32,14.5,15-3.65,4.77-8.49,6.27-14.5,4.5-4.77-3.65-6.27-8.49-4.5-14.5,1.37-1.86,2.87-3.53,4.5-5Z"/></svg>